<svg xmlns="http://www.w3.org/2000/svg" viewBox="0 0 187.26 186.74"><defs><style>.cls-1{fill:#104d82;}</style></defs><g id="Calque_2" data-name="Calque 2"><g id="Calque_1-2" data-name="Calque 1"><path class="cls-1" d="M167,45.84c.22-18.42-17.14-30.22-31.63-24.26-5.81,2.39-10.56,6.25-15,10.64Q76.32,76.4,32.19,120.59a58.1,58.1,0,0,0-7.28,8.84c-9.72,14.64-2,33.28,15.3,36.81,9.09,1.86,16.36-2.5,22.5-8.36,13.23-12.65,26.14-25.64,39.09-38.58q27.92-27.89,55.65-55.94C162.9,57.81,166.89,51.29,167,45.84Zm-45.89,69.77.93,1.79c11.57,0,23.14.07,34.71,0a58.48,58.48,0,0,0,10.41-.92c17-3.24,25-20.18,16.87-35.58-3.08-5.84-8.3-9.1-14.59-10.21-4.61-.82-5.82,4.24-8.77,6.36a26.87,26.87,0,0,0-2.86,2.79ZM66.22,70.81,65.08,69c-13.76.21-27.51-.58-41.27.46a35.27,35.27,0,0,0-9.2,2.12C4.45,75.22-.74,83.8.08,95.64a21.67,21.67,0,0,0,17.27,20.09,4.55,4.55,0,0,0,4.81-1.6c4.28-4.42,8.61-8.81,13-13.11Q50.65,85.87,66.22,70.81ZM135.49,129v.16c-2.83,0-5.65,0-8.48,0-5.48,0-11-.1-16.44.21-4.11.22-8.91,6-6.91,7.86,9.11,8.7,16.81,18.95,27.71,25.67,9.66,6,19.3,4.93,27.46-2.55,8.7-8,10.42-17.08,5.61-27.44-1.42-3.08-3.27-4.06-6.52-4C150.45,129.12,143,129,135.49,129ZM51.7,57.42V57.2c7.82,0,15.65-.15,23.47.06,4.43.13,6.93-2.81,8.68-5.76,1.57-2.65-2.21-3.88-3.63-5.69a56.16,56.16,0,0,0-5.14-5.44c-6.46-6.21-12.23-13.23-20.29-17.58-9.48-5.13-18.55-3.72-26.43,4C19.62,35.41,18,43.89,22.94,53.87c1.29,2.6,2.9,3.66,5.79,3.6C36.38,57.32,44,57.42,51.7,57.42ZM93.62,0C82.41-.1,74.38,5.62,71.37,15.7c-.68,2.28-.6,4,1.29,5.81,6.24,6,12.41,12.06,18.41,18.29,2,2.11,3.25,1.94,5.17,0,5.78-6,11.57-12,17.71-17.6,2.61-2.38,2.71-4.56,1.68-7.46C112.21,5.05,104.86.1,93.62,0Zm-.21,186.74c11.42.06,19-5.25,22.25-15.64.61-2,1.35-3.94-.75-5.92-6.42-6.05-12.66-12.29-18.88-18.55-1.74-1.75-2.92-2-4.81-.09-6.14,6.34-12.42,12.55-18.76,18.68-1.78,1.72-1.6,3.39-1,5.42C74.61,181.06,82.24,186.69,93.41,186.74Z"/><path class="cls-1" d="M167,45.84c-.15,5.45-4.14,12-9.59,17.52Q129.79,91.49,101.8,119.3c-13,12.94-25.86,25.93-39.09,38.58-6.14,5.86-13.41,10.22-22.5,8.36-17.29-3.53-25-22.17-15.3-36.81a58.1,58.1,0,0,1,7.28-8.84q44.07-44.25,88.27-88.37c4.39-4.39,9.14-8.25,15-10.64C149.9,15.62,167.26,27.42,167,45.84Z"/><path class="cls-1" d="M121.15,115.61l36.7-35.81A26.87,26.87,0,0,1,160.71,77c2.95-2.12,4.16-7.18,8.77-6.36C175.77,71.76,181,75,184.07,80.86c8.12,15.4.1,32.34-16.87,35.58a58.48,58.48,0,0,1-10.41.92c-11.57.11-23.14,0-34.71,0Z"/><path class="cls-1" d="M66.22,70.81q-15.53,15.1-31,30.21c-4.4,4.3-8.73,8.69-13,13.11a4.55,4.55,0,0,1-4.81,1.6A21.67,21.67,0,0,1,.08,95.64c-.82-11.84,4.37-20.42,14.53-24a35.27,35.27,0,0,1,9.2-2.12c13.76-1,27.51-.25,41.27-.46Z"/><path class="cls-1" d="M135.49,129c7.48,0,15,.13,22.43-.07,3.25-.08,5.1.9,6.52,4,4.81,10.36,3.09,19.46-5.61,27.44-8.16,7.48-17.8,8.5-27.46,2.55-10.9-6.72-18.6-17-27.71-25.67-2-1.9,2.8-7.64,6.91-7.86,5.47-.31,11-.17,16.44-.21,2.83,0,5.65,0,8.48,0Z"/><path class="cls-1" d="M51.7,57.42c-7.66,0-15.32-.1-23,0-2.89.06-4.5-1-5.79-3.6-4.93-10-3.32-18.46,5.42-27,7.88-7.75,17-9.16,26.43-4,8.06,4.35,13.83,11.37,20.29,17.58a56.16,56.16,0,0,1,5.14,5.44c1.42,1.81,5.2,3,3.63,5.69-1.75,3-4.25,5.89-8.68,5.76-7.82-.21-15.65-.06-23.47-.06Z"/><path class="cls-1" d="M93.62,0c11.24.1,18.59,5.05,22,14.7,1,2.9.93,5.08-1.68,7.46-6.14,5.61-11.93,11.61-17.71,17.6-1.92,2-3.15,2.15-5.17,0-6-6.23-12.17-12.31-18.41-18.29-1.89-1.81-2-3.53-1.29-5.81C74.38,5.62,82.41-.1,93.62,0Z"/><path class="cls-1" d="M93.41,186.74c-11.17-.05-18.8-5.68-21.94-16.1-.61-2-.79-3.7,1-5.42,6.34-6.13,12.62-12.34,18.76-18.68,1.89-2,3.07-1.66,4.81.09,6.22,6.26,12.46,12.5,18.88,18.55,2.1,2,1.36,3.92.75,5.92C112.43,181.49,104.83,186.8,93.41,186.74Z"/></g></g></svg>